<svg id="FCig" role="figure" lang="en" aria-labelledby="FCalt" tabindex="0" fill="none" xmlns="http://www.w3.org/2000/svg" preserveAspectRatio="xMinYMin slice" viewBox="0 0 3200 1800">
  <title id="FCalt">Fireside Chat Infographic Treating Exclusion Like Pollution. </title>
  <style>
    #FCig{
      color-scheme: light dark;
      background:transparent;
      width:100%
    }
    #atosLogo,#FCh1,#FCh2,#FCh3,.FCgr1,#cirArrow,.FCgr1a,.FCgr1b,.FCgr2,.FCgr3,.FCgr3a,.FCgr3b,.FCgr4,.FCgr5,.FCgr6,.FCgr7,.FCgr8,.FCgr9,.FCgr10{
      transform:rotate(var(--FCr,0))translateX(var(--FCx,0px))translateY(var(--FCy,0px))scale(var(--FCs,1))
    }
    @supports(aspect-ratio:auto){
      @media (max-width:619px){
        #dtEl,.FCx{
          display:none
        }
        .FCgr3a{
          transform:translateX(-1030px)
        }
        .FCgr3b{
          transform-box:fill-box;
          transform-origin:center center;
          transform:translate(-20px)scale(var(--FCs))
        }
        #rArrow,#lArrow{
          transform-box: fill-box;
          transform-origin: center center
        }
        #rArrow{
          transform:rotate(180deg)translate(75px)
        }
        #lArrow{
          transform:rotate(180deg)translate(35px)
        }
      }
      @media (max-width:619px) and (min-width:420px){
        #tabEl{
          display:initial
        }
        #FCig{
          aspect-ratio:1394/1800
        }
        #FCmskPths,#FCtxt{
          transform:scale(0.745)
        }
        #atosLogo{
          --FCx:1295px;
          --FCs:.85
        }
        #FCh1{
          --FCx:-30px;
          --FCy:-185px
        }
        #FCh2{
          --FCx:-190px;
          --FCy:230px
        }
        #FCh3{
          --FCx:-1315px;
          --FCy:632px
        }
        .FCgr1{
          --FCx:-1280px;
          --FCy:230px
        }
        .FCgr1a,.FCgr1b{
          transform:none;
        }
        #cirArrow{
          --FCx:-90px;
          --FCy:-50px;
          --FCs:.80;
          stroke-width:47.5px
        }
        .FCgr2{
          --FCx:-1250px;
          --FCy:105px
        }
        .FCgr3{
          --FCx:90px;
          --FCy:280px
        }
        .FCgr3b{
          --FCs:.85
        }
        .FCgr4{
          --FCx:1160px;
          --FCy:400px
        }
        .FCgr5{
          --FCx:-250px;
          --FCy:240px
        }
        .FCgr6{
          --FCx:-1170px;
          --FCy:520px
        }
        .FCgr7{
          --FCx:-1170px;
          --FCy:635px
        }
        .FCgr8{
          --FCx:-775px;
          --FCy:390px
        }
        .FCgr9{
          --FCx:-1270px;
          --FCy:550px
        }
        .FCgr10{
          --FCx:-1320px;
          --FCy:640px
        }
      }
      @media(max-width:419px){
        #mobEl,.FCoM{
          display:initial
        }
        #FCig{
          aspect-ratio:329/1800
        }
        #FCmskPths,#FCtxt{
          transform:scale(0.315)
        }
        .FCxM{
          display: none;
        }
        #atosLogo,#FCh1{
          --FCx:-45px;
          --FCy:-40px
        }
        .FCgr1{
          --FCx:-1150px;
          --FCy:600px
        }
        .FCgr1a{
          --FCx:-805px;
          --FCy:500px
        }
        .FCgr1b{
          transform-box:fill-box;
          transform-origin:center center;
          --FCr:90deg;
          --FCx:250px;
          --FCy:320px
        }
        .FCgr2{
          --FCx:-1390px;
          --FCy:1060px
        }
        .FCgr3{
          --FCx:-140px;
          --FCy:1500px
        }
        .FCgr3b{
          --FCs:1;
        }
        .FCgr4{
          --FCx:-30px;
          --FCy:1925px
        }
        #FCh2{
          --FCx:-205px;
          --FCy:2000px
        }
        .FCgr5{
          --FCx:-205px;
          --FCy:2060px
        }
        .FCgr6{
          --FCx:-1125px;
          --FCy:2530px
        }
        .FCgr7{
          --FCx:-1125px;
          --FCy:2675px
        }
        .FCgr8{
          --FCx:-1740px;
          --FCy:3500px
        }
        .FCgr9{
          --FCx:-1570px;
          --FCy:3310px
        }
        .FCgr10{
          --FCx:-2255px;
          --FCy:3875px
        }
        #FCh3{
          --FCx:-1970px;
          --FCy:3920px
        }
      }
    }
    @media (prefers-color-scheme:dark), (forced-colors:active){
      #FCig :is([fill="#000"],[fill="#0073E6"]){
        fill:#F7F7F7
      }
      #FCig :is([stroke="#000"],[stroke="#0073E6"]){
        stroke:#F7F7F7
      }
      #FCig [fill="#F7F7F7"]{
        fill:#00005C
      }
      #FCig [stroke="#F7F7F7"]{
        stroke:#00005C
      }
      #FCig [fill="#3DC7FF"]{
        fill:#64D2FF
      }
      #FCig [stroke="#3DC7FF"]{
        stroke:#64D2FF
      }
      #FCig [fill="#663894"]{
        fill:#9999BE
      }
      #FCig [stroke="#663894"]{
        stroke:#9999BE
      }
      #FCig [fill="#63A641"]{
        fill:#80C26C
      }
      #FCig [stroke="#63A641"]{
        stroke:#80C26C
      }
    }
    @media (forced-colors:active){
      #FCmskPths{
        filter:saturate(0)brightness(2)
      }
      #FCcto{
        display:initial
      }
      #FCtxt :is(text,tspan){
        fill:canvasText!important
      }
      #FCig [fill="#F7F7F7"]{
        fill:#000
      }
      .FCgr3a path,.FCgr3b circle{
        paint-order:stroke fill;
        stroke:#fff;
        stroke-width:1em;
        fill:#000!important
      }
      .FCgr3b text{
        fill:#fff!important
      }
      .FCgr4 circle:not(#solveCir){
        display:none
      }
      #FCig [font-weight="700"]{
        font-weight:600
      }
    }
  </style>
  <defs>
    <mask id="FCctoMsk">
      <use x="0" y="0" href="#FCmskPths" />
    </mask>
  </defs>
  <g id="FCmskPths" stroke-width="20" role="none">
    <g id="dtEl">
      <path fill="#F7F7F7" stroke="#000" stroke-width="30" d="M45 15q-30 0-30 30v1708q0 30 30 30h3108q30 0 30-30V45q0-30-30-30Z"/>
      <path stroke="#0073E6" stroke-width="38" d="M1798 862h-83m0-16-28 16 28 16ZM3001 1495v45q0 47-45 47h-24m0 16-28-16 28-16ZM199 1078v222q0 47 45 47h29m0 16 28-16-28-16ZM1308 510l28-16-28-16zm-171-16h171"/>
    </g>
    <g id="tabEl" display="none">
      <path fill="#F7F7F7" stroke="#000" stroke-width="30" d="M45 15q-30 0-30 30v2321q0 31 30 31h1776q30 0 30-31V45q0-30-30-30Z"/>
      <path stroke="#000" stroke-width="3" d="M1365 149v91"/>
      <path stroke="#0073E6" stroke-width="38" d="M664 2170h43q174 0 174-184v-395q0-51 51-51h25M572 971H243a86 86 0 000 171h20m210 828v83m484-497 28-16-28-16ZM262 1158l28-16-28-16Zm195 895 16 28 16-28Zm1159 155-28 16 28 16Zm83 16h-83"/>
    </g>
    <g id="mobEl" display="none">
      <path fill="#F7F7F7" stroke="#000" stroke-width="30" d="M995 15H47c-18 0-32 14-32 32v5612c0 18 14 32 32 32h948c17 0 31-14 31-32V47c0-18-14-32-31-32Z"/>
      <path stroke="#0073E6" stroke-width="38" d="M 521 3631 v 83 m -16 0 l 16 28 l 16 -28 Z m 16 279 v 83 m -16 0 l 16 28 l 16 -28 Z m 16 279 v 83 m -16 0 l 16 28 l 16 -28 Z M 762 2579 v 90 q 0 84 -86 84 h -5 m 1 -16 l -28 16 l 28 16 Z M 410 2009 h -50 q -86 0 -86 86 v 57 m -16 0 l 16 28 l 16 -28 Z M 762 1835 v 90 q 0 84 -86 84 h -5 m 1 -16 l -28 16 l 28 16 Z"/>
    </g>
    <g class="FCgr10">
      <path fill="#3DC7FF" d="m2678 1056-16 107-28-22a196 196 0 00-18 219l-45-7a235 235 0 0133-236l-27-21zm280 111c39 67 34 154-17 219l-23-18-21 103 96-43-23-19h1c55-69 64-159 33-236z"/>
      <path fill="#0073E6" d="m2698 1047-7 45c68-38 154-33 219 18l-22 27 106 16-39-100-22 27c-69-55-159-65-235-33zm-33 370c65 52 153 56 220 17l-9 46c-76 31-166 21-235-33v-1l-21 28-40-100 107 16z"/>
    </g>
    <path class="FCgr9" stroke="#3DC7FF" d="M2379 1437h35q3 0 3-5v-199q0-5-4-5h-137q-4 0-4 5v198q0 6 4 6h35v-58q0-2 2-2h64q2 0 2 2Zm-72-161h26m-26 46h26m24-46h26m-26 46h26"/>
    <g class="FCgr6">
      <path stroke="#63A641" d="m1785 1412-10 7-4-7m152-91 19-13-51-77-167 111 26 38m199-59h-200v92h200v-92z"/>
      <path fill="#63A641" d="M1862 1374l7 4c-8 17-37 15-42-4h-7l1-7h5v-3h-5l1-7h5c5-19 34-21 42-4l-7 4c-7-10-20-10-26 0h16l-1 7h-16v3h16l-1 7h-14c6 10 20 10 26 0Z"/>
      <path stroke="#0073E6" stroke-width="10" d="M1656 1347h-28m14 13v-28m25 15a25 25 0 00-50 0 25 25 0 0050 0Z"/>
      <path stroke="#EF5E82" d="M1503 1299v-35q0-3-3-3h-32m-43 153h-43q-3 0-3-3v-141m9-9h84q3 0 3 3v62m-73-31h51m94 38 9-9a1 1 0 00-23-23l-9 9m23 23-23-23m23 23-63 63-23-23 63-63m-47 93-30 11q-6 2-4-4l11-30 7-7 23 23-7 7Z"/>
    </g>
    <path class="FCx" stroke="#0073E6" stroke-width="38" d="M2041 1347h83m0 16 28-16-28-16v32ZM1149 1347h83m0 16 28-16-28-16v32Z"/>
    <path class="FCgr5" stroke="#3DC7FF" stroke-width="20" d="M772 1475h103a153 153 0 00-306 0h103m50-153v62m-10 36 45-20 21 45m-57 55 36-100m41 14 46-31m-198 31-46-31m137 112a14 14 0 00-28 0 14 14 0 0028 0Z"/>
    <g class="FCgr4">
      <circle id="solveCir" stroke="#0073E6" stroke-dasharray="1 37" stroke-linecap="round" stroke-width="17" cx="354" cy="834" r="175" />
      <g>
        <circle fill="#63A641" cx="370" cy="882" r="25" />
        <circle fill="#EF5E82" cx="414" cy="882" r="25" />
        <circle fill="#3DC7FF" cx="460" cy="882" r="25" />
      </g>
    </g>
    <g class="FCgr3">
      <g class="FCgr3b">
        <path stroke="#000" d="m941 782-25 24c-7 6-18 6-25-1-6-6-6-16 0-23l28-28c6-7 15-10 24-10h4c5 0 8 1 12 3l3 3s9 12 19 12h25c8 0 15 5 15 13v54c0 9-7 16-16 16h-42m-5-44 10 11c7 8 8 20 0 27l-37 36c-6 6-15 6-21 0l-22-22c-7-7-19-8-19-8h-31c-9 0-17-8-17-17v-51c0-9 8-16 17-16h3c8 0 20 0 32-11 13-10 25-8 25-8s11 0 16 8m25 74 17 18m-37 0 17 18"/>
        <circle fill="#63A641" cx="856" cy="944" r="35" />
        <circle fill="#EF5E82" cx="921" cy="944" r="35" />
        <circle fill="#3DC7FF" cx="987" cy="944" r="35" />
        <text fill="#F7F7F7" font-family="Raleway" font-size="57" font-weight="700" text-rendering="optimizeLegibility" text-anchor="middle" role="none">
          <tspan x="862" y="964">E </tspan>
          <tspan x="927" y="964">S </tspan>
          <tspan x="987" y="964">G </tspan>
        </text>
      </g>
      <g class="FCgr3a">
        <path fill="#000" d="M1541 850h-194c-22 0-39 18-39 39v5c0 22 17 39 39 39h194c22 0 39-17 39-39v-5c0-21-17-39-39-39Z"/>
      </g>
      <path id="rArrow" class="FCxM" stroke="#0073E6" stroke-miterlimit="10" stroke-width="38" d="M1239 862h-83m0-16-28 16 28 16v-32Z"/>
      <path id="lArrow" stroke="#0073E6" stroke-miterlimit="10" stroke-width="38" d="M752 862h-83m0-16-28 16 28 16v-32Z"/>
    </g>
    <path class="FCgr2" id="shovel" stroke="#000" stroke-width="20" d="m2000 820-11 10q-9 8-17 0l-7-7q-8-8 0-16l11-11Zm-34 9-33 33m-55 57s-17-42-1-59l26-26 60 59-27 26c-17 17-58 0-58 0z"/>
    <g class="FCgr1">
      <g class="FCgr1a">
        <path id="cirArrow" class="FCxM" transform-origin="100% 28%" stroke="#0073E6" stroke-width="38" d="M2621 862h50a354 354 0 10-241-610m191 594-28 16 28 16z"/>
        <g stroke-width="20">
          <path stroke="#3DC7FF" d="M2636 478a31 31 0 100-61 31 31 0 000 61zM2790 478a31 31 0 100-61 31 31 0 000 61zm-142-61h142M2667 576v-105h103v105m-69-82v82m34-82v82"/>
          <path stroke="#EF5E82" d="M2419 533q-38 0-38 38m3-82a17 17 0 0034 0 17 17 0 00-34 0zm145 44q38 0 38 38m-38-82a17 17 0 0034 0 17 17 0 00-34 0zm-103 82a49 49 0 1197 0m-17-109a31 31 0 00-62 0 31 31 0 0062 0Z"/>
          <path stroke="#63A641" d="M2139 387c36 0 65 29 65 65-36 0-65-29-65-65Zm65 65c0-27 22-50 50-50 0 28-23 50-50 50m0 4v22m-89 5a89 89 0 00178 0zm75 88c-6-34-6-46-18-57-9-8-17-4-17-4l-29 11m106-33q-8 11-3 18 13 17 13 21 0 8-6 10-10 3-16 27"/>
        </g>
      </g>
      <path class="FCgr1b" stroke="#000" stroke-width="4" d="M1980 305v340"/>
      <g stroke-width="20">
        <path stroke="#F56A00" d="M1567 525a59 59 0 0 1-117-13c0-20 10-38 25-49m25-65v80h70l26 62 24-10m-70-87h-50m3-55 7-5m-12 11-1-1a12 12 0 0 1 17-17l1 1a12 12 0 0 1-17 17Z"/>
        <path stroke="#663894" d="M1728 499h25m24 0h25m24 0h25m-123 35h25m24 0h25m24 0h25m76-307v16M1702 568h177V392h-37v70h-36v-28l-51 27v-25l-53 27Zm237-333a13 13 0 00-26 0 13 13 0 0026 0Zm-6 32a13 13 0 00-26 0 13 13 0 0026 0Zm-14 5a13 13 0 00-26 0 13 13 0 0026 0Zm5 13a13 13 0 00-26 0 13 13 0 0026 0Zm-33 16a13 13 0 00-26 0 13 13 0 0026 0Zm10 15a13 13 0 00-26 0 13 13 0 0026 0Zm-5 13a13 13 0 00-26 0 13 13 0 0026 0Zm-17 0a13 13 0 00-26 0 13 13 0 0026 0Zm-5 19a13 13 0 00-26 0 13 13 0 0026 0Z"/>
      </g>
    </g>
    <path id="atosLogo" fill="#0073E6" d="M450 219c-16-5-20-9-20-14 0-6 8-10 19-10l10 1v12l15 1 1-26-27-3c-21 0-38 9-38 27 0 17 12 22 32 29 16 4 17 8 17 13s-7 9-17 9-22-3-28-6l-9 14c10 5 22 8 36 8 21 0 39-9 39-28 0-15-9-21-30-27Zm-206-39h-41v12h10l-25 69h-8v12h34v-12h-8l4-12h37l5 12h-7v12h36v-12h-8l-29-81Zm-28 54 13-36 13 36h-26ZM382 196a42 42 0 0 0-20-3 41 41 0 0 0 17 62c-4 2-8 4-13 4-13 0-24-11-24-25 0-6 2-12 5-16 0-6 3-18 6-23-17 5-29 21-29 39 0 7 2 14 5 19-4 4-9 7-14 7-7 0-12-6-12-13v-37h21v-14h-21v-16h-20v16h-14v14h14v38c0 20 14 26 28 26 11 0 21-5 26-11 8 7 18 11 29 11 23 0 42-18 42-40 0-17-10-32-26-38Zm7 45a25 25 0 0 1-16-31 25 25 0 0 1 16 31Z"/>
  </g>
  <!-- CTO -->
  <g id="FCcto" display="none" aria-hidden="true">
    <rect x="0" y="0" width="100%" height="100%" fill="Canvas" />
    <rect x="0" y="0" width="100%" height="100%" fill="canvasText" mask="url(#FCctoMsk)" />
  </g>
  <!-- Text -->
  <g id="FCtxt" fill="#000" font-family="Raleway, Verdana, Arial, Helvetica, sans-serif" font-size="42" font-weight="700" text-anchor="middle" letter-spacing="0em" text-rendering="optimizeLegibility" >
    <text id="FCh1" role="heading" aria-level="1" tabindex="0" font-size="103" font-weight="bolder" text-anchor="start">
        <tspan x="180" y="421">TREATING </tspan>
        <tspan x="180" y="524" fill="#F56A00"><tspan class="FCxM" dx="535" dy="-103">&#8204;</tspan>EXCLUSION </tspan>
        <tspan x="180" y="627"><tspan class="FCxM" dy="-103">&#8204;</tspan>LIKE </tspan>
        <tspan x="180" y="730" fill="#663894"><tspan class="FCxM" dx="250" dy="-206">&#8204;</tspan>POLLUTION<tspan fill="rgba(0,0,0,0)" x="-2000">. </tspan></tspan>
      <tspan role="heading" aria-level="2" tabindex="0" x="180" dy="50" fill="#000" font-size="42" font-weight="600">An ESG Approach to Disability Inclusion</tspan><tspan fill="rgba(0,0,0,0)" x="-2000">. </tspan>
    </text>
    <g class="FCgr1">
      <text role="paragraph" tabindex="0">
        <tspan x="1535" y="636">Exclusion </tspan><tspan fill="rgba(0,0,0,0)" x="-2000"> happens when people and organizations don't design their products and services with disabled people in mind. It is what's called a negative externality. </tspan>
        <tspan x="1795">Pollution</tspan><tspan fill="rgba(0,0,0,0)" x="-2000"> is also a negative externality, an environmental impact created when organizations deliver products and services. </tspan>
      </text>
      <text class="FCgr1a" role="heading" aria-level="3" tabindex="0">
        <tspan x="2470" y="336">Treat exclusion like pollution in </tspan>
        <tspan x="2209" y="636">Environmental </tspan>
        <tspan x="2479">Social </tspan>
        <tspan x="2724">Governance</tspan><tspan fill="rgba(0,0,0,0)" x="-2000">. </tspan>
      </text>
      <text fill="rgba(0,0,0,0)" x="-1000" role="paragraph" tabindex="0">E S G, Environment Social &amp; Governance, is a framework for addressing sustainability topics, often people think of sustainability as only being about the environment but it is more. In the context of ESG Disability inclusion is a social topic. </text>
    </g>
    <g role="paragraph" tabindex="0">
      <text class="FCgr2">
        <tspan fill="rgba(0,0,0,0)" x="-2000">We can reduce exclusion in the same way that we reduce pollution by applying governance to ensure that we </tspan>
        <tspan x="1910" y="986"><tspan class="FCxM" dx="160" dy="-110">&#8204;</tspan>Build </tspan>
        <tspan x="1910" y="1035"><tspan class="FCxM" dx="316" dy="-159">&#8204;</tspan>Inclusive </tspan>
        <tspan x="1910" y="1084"><tspan class="FCxM" dx="509" dy="-208">&#8204;</tspan>Solutions</tspan><tspan fill="rgba(0,0,0,0)" x="-2000">. </tspan>
      </text>
      <g class="FCgr3">
        <text class="FCgr3a" role="text">
          <tspan fill="rgba(0,0,0,0)" x="-2000">This supports </tspan>
          <tspan x="1450" y="825">Our Values </tspan><tspan fill="rgba(0,0,0,0)" x="-2000">so that </tspan>
          <tspan fill="#F7F7F7" x="1445" dy="80">Inclusion </tspan><tspan fill="rgba(0,0,0,0)" x="-2000">Becomes embedded into E S G. </tspan>
        </text>
      </g>
    </g>
    <text class="FCgr4" text-anchor="start" role="paragraph" tabindex="0">
      <tspan x="254" y="749">Solve the </tspan>
      <tspan x="254" dy="49">problem </tspan>
      <tspan x="254" dy="49">in dealing </tspan>
      <tspan x="254" dy="49">with 
        <tspan class="FCdktxt" fill="#F7F7F7" dy="1" text-anchor="middle">
          <tspan x="374">E </tspan>
          <tspan x="418">S </tspan>
          <tspan x="465">G </tspan>
        </tspan>
      </tspan>
      <tspan x="254" dy="49">together!</tspan>
      <tspan fill="rgba(0,0,0,0)" x="-5000">This graphic as well as having a positive social impact also has a positive environmental impact due to its scalability and small file size which consumes less energy. We can deliver across E S and G. </tspan>
    </text>
    <text id="FCh2" text-anchor="start">
      <tspan role="heading" aria-level="2" tabindex="0" font-size="79" font-weight="bolder" x="335" y="1134">HOW TO ADD VALUE? </tspan>
      <tspan role="heading" aria-level="3" tabindex="0" font-weight="600" x="336" y="1182">Full Ecosystem Accessibility</tspan>
    </text>
    <g role="paragraph" tabindex="0">
      <text class="FCgr5">
        <tspan fill="rgba(0,0,0,0)" x="-2000">Just like with carbon emissions address inclusion and exclusion impacts across all three scopes:</tspan>
        <tspan x="727" y="1281">Direct</tspan><tspan fill="rgba(0,0,0,0)" x="-2000">, </tspan>
        <tspan x="495" y="1377">Indirect </tspan><tspan fill="rgba(0,0,0,0)" x="-2000">and </tspan>
        <tspan x="977" y="1377">Influence</tspan><tspan fill="rgba(0,0,0,0)" x="-2000">. </tspan>
      </text>
      <text class="FCgr6" role="text">
        <tspan fill="rgba(0,0,0,0)" x="-2000">These actions feed into combined </tspan>
        <tspan x="1465" y="1495">Reporting </tspan><tspan fill="rgba(0,0,0,0)" x="-2000">on </tspan>
        <tspan x="1842" y="1495">Financial </tspan><tspan fill="rgba(0,0,0,0)" x="-2000">and </tspan>
      </text>
      <text class="FCgr7" role="text">
        <tspan x="1652" y="1565"><tspan class="FCx" dx="-130">&#8204;</tspan>Diversity </tspan>
        <tspan x="1630" dy="49"><tspan class="FCx" dx="128" dy="0">&#8204;</tspan><tspan aria-hidden="true">+ </tspan>Environment <tspan fill="rgba(0,0,0,0)" x="-2000">, </tspan> </tspan>
      </text>
      <text class="FCgr9" role="text">
        <tspan fill="rgba(0,0,0,0)" x="-2000">Delivering value for </tspan>
        <tspan x="2345" y="1495">Corporations </tspan><tspan fill="rgba(0,0,0,0)" x="-2000">that </tspan>
      </text>
      <text class="FCgr8" role="text">
        <tspan x="2116" y="1110"><tspan class="FCx" dx="-205">&#8204;</tspan>Analyze processes </tspan>
        <tspan fill="rgba(0,0,0,0)" x="-2000">that create</tspan>
        <tspan x="2116" dy="49"><tspan class="FCx" dx="185" dy="0">&#8204;</tspan><tspan aria-hidden="true">+</tspan> Good governance </tspan>
        <tspan fill="rgba(0,0,0,0)" x="-2000">and deliver</tspan>
        <tspan x="2116" dy="49"><tspan aria-hidden="true">+</tspan> Inclusion at every step! </tspan>
      </text>
      <text class="FCgr10" role="text">
        <tspan fill="rgba(0,0,0,0)" x="-2000">Engage </tspan>
        <tspan x="2792" y="1232">All Departments: </tspan>
        <tspan x="2792" dy="49">HR Cycle &#38; </tspan>
        <tspan x="2792" dy="49">Product Cycle</tspan><tspan fill="rgba(0,0,0,0)" x="-2000">. </tspan>
      </text>
    </g>
    <text id="FCh3" role="heading" aria-level="2" tabindex="0" font-size="79" font-weight="bolder">
      <tspan x="2495" y="1620">YOU CAN DO THIS! </tspan>
    </text>
  </g>
</svg>